<?xml version="1.0" standalone="no"?>
<!DOCTYPE svg PUBLIC "-//W3C//DTD SVG 20010904//EN"
 "http://www.w3.org/TR/2001/REC-SVG-20010904/DTD/svg10.dtd">
<svg version="1.0" xmlns="http://www.w3.org/2000/svg"
 width="2667.000000pt" height="2667.000000pt" viewBox="0 0 2667.000000 2667.000000"
 preserveAspectRatio="xMidYMid meet">
<metadata>
Created by potrace 1.11, written by Peter Selinger 2001-2013
</metadata>
<g transform="translate(0.000000,2667.000000) scale(0.100000,-0.100000)"
fill="#000000" stroke="none">
<path d="M12955 24163 c-814 -32 -1555 -137 -2310 -328 -2270 -575 -4303
-1891 -5789 -3749 -1065 -1332 -1794 -2886 -2138 -4553 l-23 -113 -1347 0
-1348 0 0 -2085 0 -2085 1348 0 1347 0 29 -142 c36 -180 122 -532 181 -738
398 -1408 1094 -2744 2019 -3874 440 -538 1034 -1132 1572 -1572 1129 -924
2467 -1622 3873 -2019 1239 -350 2575 -477 3876 -370 2991 248 5712 1710 7597
4085 1055 1329 1790 2916 2118 4573 l11 57 1350 0 1349 0 0 2085 0 2085 -1349
0 -1350 0 -11 58 c-280 1398 -843 2742 -1646 3925 -845 1245 -1955 2317 -3234
3122 -377 237 -957 547 -1350 719 -1270 559 -2550 856 -3950 916 -210 9 -637
11 -825 3z m825 -3763 c1596 -111 3031 -707 4235 -1760 154 -135 490 -471 625
-625 630 -720 1098 -1526 1397 -2405 l62 -185 -6761 -3 c-3719 -1 -6763 0
-6765 2 -10 10 134 415 227 636 813 1943 2475 3444 4488 4051 518 156 1128
265 1637 292 150 8 724 6 855 -3z m-9960 -6251 c158 -39 317 -141 436 -281 68
-79 147 -236 171 -343 25 -113 23 -303 -6 -409 -76 -286 -306 -516 -596 -598
-66 -18 -104 -22 -220 -22 -169 1 -250 20 -388 91 -76 39 -110 65 -193 148
-116 115 -167 195 -216 335 -31 91 -32 101 -33 255 0 180 16 257 79 383 180
358 574 538 966 441z m14189 0 c226 -52 437 -222 547 -440 96 -192 111 -456
37 -664 -76 -212 -261 -404 -475 -493 -216 -90 -504 -76 -709 35 -201 109
-361 310 -420 528 -29 107 -31 317 -5 420 28 109 106 259 178 342 220 253 516
348 847 272z m5291 4 c241 -49 462 -227 571 -458 52 -112 69 -182 76 -320 12
-246 -59 -442 -221 -612 -159 -168 -338 -254 -559 -270 -398 -28 -764 235
-868 623 -29 106 -31 316 -5 419 45 173 158 348 297 459 201 160 443 214 709
159z m-21551 -613 c266 -341 487 -623 492 -626 5 -3 9 256 9 621 l0 626 118
-3 117 -3 3 -817 2 -818 -127 1 -128 0 -485 623 -485 623 -3 -623 -2 -624
-120 0 -120 0 0 820 0 820 123 0 122 0 484 -620z m3661 -5 c267 -343 488 -624
493 -625 4 0 7 281 7 625 l0 625 115 0 115 0 0 -820 0 -820 -122 0 -123 0
-483 620 c-266 341 -488 622 -493 625 -5 4 -9 -241 -9 -619 l0 -626 -115 0
-115 0 0 820 0 820 123 0 122 -1 485 -624z m2421 615 c131 -24 260 -124 321
-247 62 -126 46 -291 -37 -381 l-32 -35 57 -29 c160 -80 261 -249 261 -438 0
-193 -106 -366 -273 -448 -101 -48 -139 -52 -528 -52 l-360 0 0 820 0 820 269
0 c147 0 293 -5 322 -10z m1049 -810 l0 -820 -115 0 -115 0 0 820 0 820 115 0
115 0 0 -820z m1028 195 c266 -341 488 -621 493 -623 5 -2 9 252 9 622 l0 626
115 0 115 0 0 -820 0 -820 -123 0 -123 0 -490 628 -489 627 -3 -627 -2 -628
-115 0 -115 0 0 820 0 821 122 -3 123 -3 483 -620z m2058 -100 c145 -396 279
-764 298 -817 l35 -98 -122 0 -122 0 -70 195 -70 195 -325 0 -326 0 -69 -191
c-38 -105 -74 -193 -80 -195 -6 -3 -61 -3 -122 -2 l-111 3 244 665 c134 366
269 734 300 818 l56 153 111 -3 110 -3 263 -720z m1069 715 c143 -23 284 -131
347 -267 41 -87 51 -218 23 -319 -30 -112 -119 -224 -218 -275 l-38 -20 244
-362 c134 -199 247 -368 251 -374 6 -10 -25 -13 -138 -13 l-145 0 -235 349
c-130 193 -241 353 -247 357 -6 3 -53 3 -105 -1 l-94 -7 0 -349 0 -349 -120 0
-120 0 0 820 0 820 268 0 c147 0 294 -5 327 -10z m1067 -245 c93 -137 171
-250 173 -250 2 0 81 114 175 253 l171 252 141 0 c108 0 139 -3 135 -12 -2 -7
-115 -177 -251 -378 l-246 -365 0 -442 0 -443 -120 0 -120 0 0 438 0 437 -251
370 c-138 204 -254 376 -256 383 -4 10 25 12 137 10 l143 -3 169 -250z m1928
-445 l0 -700 395 0 395 0 0 -120 0 -120 -510 0 -510 0 0 820 0 820 115 0 115
0 0 -700z m3576 73 l489 -627 3 627 2 627 120 0 120 0 0 -820 0 -821 -127 3
-127 3 -486 622 -485 623 -3 -625 -2 -625 -120 0 -120 0 0 820 0 820 124 0
123 0 489 -627z m1827 599 c303 -83 537 -348 587 -662 55 -354 -129 -716 -445
-871 -145 -71 -157 -72 -567 -77 l-368 -3 0 821 0 822 358 -4 c326 -4 364 -6
435 -26z m3483 -599 l489 -627 3 627 2 627 120 0 120 0 0 -820 0 -821 -127 3
-127 3 -486 622 -485 623 -3 -625 -2 -625 -120 0 -120 0 0 820 0 820 123 0
124 0 489 -627z m-17941 -418 l0 -110 -270 0 -270 0 -3 99 c-1 55 0 106 2 113
5 11 57 13 273 11 l268 -3 0 -110z m13125 -1869 c0 -13 -131 -384 -177 -501
-275 -695 -673 -1367 -1154 -1941 -1573 -1884 -3990 -2820 -6409 -2484 -784
110 -1555 354 -2255 714 -1533 790 -2735 2119 -3362 3715 -61 157 -173 474
-173 492 0 5 3010 9 6765 9 3721 0 6765 -2 6765 -4z"/>
<path d="M3515 13943 c-112 -15 -232 -74 -324 -158 -281 -261 -260 -712 43
-942 124 -94 246 -129 410 -120 125 7 202 32 302 99 130 87 226 220 259 359
19 83 19 229 0 304 -77 302 -375 500 -690 458z"/>
<path d="M17671 13935 c-138 -31 -274 -119 -358 -229 -86 -114 -123 -226 -123
-371 0 -180 54 -310 180 -435 124 -125 256 -180 430 -180 163 0 300 54 419
165 114 106 173 221 193 372 30 234 -77 463 -277 593 -131 85 -315 119 -464
85z"/>
<path d="M22976 13934 c-223 -50 -404 -227 -462 -453 -23 -91 -16 -263 15
-349 66 -190 243 -352 432 -397 35 -8 102 -15 149 -15 176 0 306 55 436 185
99 98 147 188 170 315 54 300 -118 596 -404 696 -94 32 -237 40 -336 18z"/>
<path d="M7480 13724 l0 -206 163 4 c141 4 167 7 203 26 70 36 124 115 124
182 0 66 -54 146 -121 181 -33 16 -60 19 -204 19 l-165 0 0 -206z"/>
<path d="M7480 13026 l0 -276 249 0 249 0 53 28 c173 90 200 323 53 452 -71
62 -85 64 -356 68 l-248 4 0 -276z"/>
<path d="M11582 13780 c-5 -14 -57 -155 -115 -315 -58 -159 -108 -298 -112
-307 -7 -17 8 -18 234 -18 133 0 241 3 241 6 0 5 -198 554 -230 639 -8 19 -8
19 -18 -5z"/>
<path d="M12680 13685 l0 -237 173 4 c188 3 205 8 266 69 51 51 65 86 66 165
0 61 -4 77 -30 119 -19 31 -49 61 -79 80 -49 30 -50 30 -223 33 l-173 3 0
-236z"/>
<path d="M20880 13346 l0 -596 223 0 c153 0 238 4 272 14 201 53 367 221 419
423 20 78 21 231 1 307 -48 185 -204 353 -385 417 -59 21 -87 23 -297 27
l-233 4 0 -596z"/>
</g>
</svg>
